# xmcd
#
# Track frame offsets: 
#        200
#        17667
#        34755
#        49382
#        62680
#        80387
#        103615
#        119747
#        136955
#        151322
#        164705
#        181650
#        197350
#
# Disc length: 2946 seconds
#
# Revision: 2
# Processed by: cddbd v1.4PL0 Copyright (c) Steve Scherf et al.
# Submitted via: ExactAudioCopy v0.90b3
#
DISCID=aa0b800d
DTITLE=Don Williams - Flatlands
DYEAR=1900
DGENRE=Country
TTITLE0=Shadow Land
TTITLE1=What Does It Matter To Me
TTITLE2=Glass House
TTITLE3=We Should Only Have Time For Love
TTITLE4=I Need You To Want Me
TTITLE5=This Side Of The Sun
TTITLE6=Gulf Shore Line
TTITLE7=Wash It All Away
TTITLE8=Which Way To Santa Fe
TTITLE9=No Problem
TTITLE10=Leaving For The Flatlands
TTITLE11=Silver Turns To Gold
TTITLE12=Restless
EXTD=
EXTT0=
EXTT1=
EXTT2=
EXTT3=
EXTT4=
EXTT5=
EXTT6=
EXTT7=
EXTT8=
EXTT9=
EXTT10=
EXTT11=
EXTT12=
PLAYORDER=
